:SAMPLES-PER-SECOND 30
:FULLY-SPECIFIED
:DEGREES
204
root  -6.91112 34.1432 -32.8555 -169.063 52.9709 -171.777
RightUpLeg  -16.5938 8.50679 -0.969631
RightLeg  6.60996 21.4908 1.08256
RightFoot  15.305 -0.761243 6.07185
RightToes  -50.6241 -0.308416 -0.36562
Spine  -1.94442 -2.12957 0.945888
Spine1  -3.64425 -3.78227 2.70362
HEad  -71.4477 -26.3713 6.12265
LeftShoulder1  -1.94126e-019 -3.10601e-018 -2.51263e-017
LeftArm  18.5724 -23.7964 -88.3561
LeftForeArm  50.6365 -73.3754 -33.6404
LeftHand  -1.24558 -3.46181 16.5094
RightShoulder  -4.96962e-017 0 -2.36833e-017
RightArm  -9.6499 -29.6405 73.6264
RightForeArm  61.2525 71.7853 27.2144
RightHand  -0.133206 -2.10623 -4.38277
LeftUpLeg  -7.06535 12.7702 2.30196
LeftLeg  27.5272 17.6628 7.6344
LeftFoot  -12.6594 -0.480979 -4.17244
LeftToes  -2.19209 2.25955e-006 -3.67304e-008
205
root  -7.16602 34.1055 -32.816 -169.457 52.2476 -172.083
RightUpLeg  -17.5631 8.4214 -1.37461
RightLeg  8.31748 20.7929 1.6573
RightFoot  15.2403 -0.726971 5.84478
RightToes  -49.9188 -0.302162 -0.364032
Spine  -1.78682 -1.86341 0.769511
Spine1  -3.34178 -3.28428 2.32465
HEad  -70.8403 -27.76 6.9005
LeftShoulder1  -1.94126e-019 -3.10601e-018 -2.51263e-017
LeftArm  19.0856 -23.542 -88.6803
LeftForeArm  46.7576 -70.9195 -28.319
LeftHand  -1.22718 -2.90891 17.3125
RightShoulder  -4.96962e-017 0 -2.36833e-017
RightArm  -10.2609 -28.7731 74.2569
RightForeArm  59.2364 70.5987 25.2805
RightHand  -0.135663 -2.48536 -4.99103
LeftUpLeg  -8.01349 12.5501 2.00941
LeftLeg  28.7172 17.0733 7.80395
LeftFoot  -12.8345 -0.481503 -4.11751
LeftToes  -1.73605 2.25955e-006 -3.67304e-008
206
root  -7.49157 34.0948 -32.7542 -169.847 51.4361 -172.59
RightUpLeg  -18.4083 7.32434 -1.81624
RightLeg  9.25087 20.8186 1.99331
RightFoot  15.7319 -0.777389 6.03728
RightToes  -50.1338 -0.304064 -0.364929
Spine  -1.56736 -1.87713 0.58353
Spine1  -2.92643 -3.34299 1.92832
HEad  -70.4777 -28.3263 7.05237
LeftShoulder1  -1.94126e-019 -3.10601e-018 -2.51263e-017
LeftArm  17.9801 -22.8616 -88.9434
LeftForeArm  40.66 -66.9694 -22.7428
LeftHand  -1.02951 -2.3483 15.603
RightShoulder  -4.96962e-017 0 -2.36833e-017
RightArm  -9.33246 -26.8979 74.5533
RightForeArm  57.6849 68.9091 22.8012
RightHand  -0.135749 -2.58082 -5.14852
LeftUpLeg  -8.97935 12.0084 1.42198
LeftLeg  29.2892 16.8675 7.91299
LeftFoot  -12.8647 -0.48021 -4.09596
LeftToes  -0.0891589 2.25955e-006 -3.67304e-008
207
root  -7.85683 34.1345 -32.6557 -170.038 51.231 -173.201
RightUpLeg  -19.0808 5.20765 -2.23691
RightLeg  8.76911 22.6486 1.97342
RightFoot  17.3023 -1.04003 7.23123
RightToes  -52.3774 -0.324115 -0.37386
Spine  -1.25051 -1.8959 0.334931
Spine1  -2.31789 -3.41516 1.3995
HEad  -71.8264 -28.257 7.67928
LeftShoulder1  -1.94126e-019 -3.10601e-018 -2.51263e-017
LeftArm  16.0478 -21.4083 -88.5068
LeftForeArm  34.4476 -63.8719 -19.9283
LeftHand  -0.760838 -1.04384 13.8553
RightShoulder  -4.96962e-017 0 -2.36833e-017
RightArm  -7.61852 -24.5925 74.9193
RightForeArm  57.121 67.3035 20.7342
RightHand  -0.138886 -2.38983 -5.04172
LeftUpLeg  -9.63011 12.3524 0.674433
LeftLeg  28.6109 16.5592 7.54203
LeftFoot  -12.3941 -0.434852 -3.84164
LeftToes  0.616912 2.25955e-006 -3.67304e-008
208
root  -8.25604 34.2243 -32.5331 -170 52.0031 -174.109
RightUpLeg  -20.0972 1.8815 -2.63452
RightLeg  7.39873 26.593 1.6793
RightFoot  19.4204 -1.58894 9.6439
RightToes  -57.3123 -0.369349 -0.390702
Spine  -1.05138 -1.76447 -0.0381778
Spine1  -1.93774 -3.18413 0.632883
HEad  -73.7193 -27.8058 8.44789
LeftShoulder1  -1.94126e-019 -3.10601e-018 -2.51263e-017
LeftArm  13.9957 -18.408 -86.8771
LeftForeArm  30.0452 -63.0069 -19.5939
LeftHand  -0.721656 -0.784733 13.6832
RightShoulder  -4.96962e-017 0 -2.36833e-017
RightArm  -5.90931 -22.8317 75.5716
RightForeArm  56.9167 66.3326 19.6278
RightHand  -0.140651 -2.21365 -5.06645
LeftUpLeg  -10.2568 13.0567 -0.514114
LeftLeg  27.0454 16.8066 7.1158
LeftFoot  -11.4077 -0.369829 -3.53986
LeftToes  1.11167 2.25955e-006 -3.67304e-008
209
root  -8.63069 34.3184 -32.3697 -168.953 53.5641 -174.603
RightUpLeg  -22.0121 -2.72745 -2.03481
RightLeg  5.9368 32.0242 1.21547
RightFoot  21.3071 -2.4195 13.1491
RightToes  -60.9841 -0.403856 -0.400673
Spine  -1.2199 -1.45469 -0.407441
Spine1  -2.27467 -2.56814 -0.107522
HEad  -74.9085 -27.1332 9.36384
LeftShoulder1  -1.94126e-019 -3.10601e-018 -2.51263e-017
LeftArm  13.2123 -14.1401 -84.4532
LeftForeArm  30.9938 -64.3712 -20.9044
LeftHand  -0.703062 -0.698893 13.5165
RightShoulder  -4.96962e-017 0 -2.36833e-017
RightArm  -4.48272 -22.4283 76.3845
RightForeArm  57.3669 66.4994 19.7628
RightHand  -0.147964 -1.984 -4.74206
LeftUpLeg  -11.3905 14.762 -1.60331
LeftLeg  25.1498 16.7827 6.47478
LeftFoot  -10.4362 -0.304667 -3.17354
LeftToes  1.21021 2.25955e-006 -3.67304e-008
210
root  -8.92124 34.394 -32.2065 -167.393 55.3857 -174.466
RightUpLeg  -24.2538 -7.55471 -0.247286
RightLeg  6.16406 33.3309 1.38535
RightFoot  21.307 -2.55158 13.8322
RightToes  -60.4676 -0.398965 -0.399404
Spine  -1.47095 -1.05534 -0.586774
Spine1  -2.76642 -1.76105 -0.470742
HEad  -76.0376 -26.4096 10.5734
LeftShoulder1  -1.94126e-019 -3.10601e-018 -2.51263e-017
LeftArm  13.026 -9.7708 -82.3423
LeftForeArm  32.8524 -65.8147 -22.3648
LeftHand  -0.697744 -1.15867 12.5099
RightShoulder  -4.96962e-017 0 -2.36833e-017
RightArm  -3.64626 -22.8963 77.0204
RightForeArm  58.2821 67.6014 20.961
RightHand  -0.156936 -1.6281 -4.23762
LeftUpLeg  -12.5711 16.4423 -2.35834
LeftLeg  23.6118 17.0057 6.04997
LeftFoot  -9.69977 -0.264001 -2.94909
LeftToes  1.1206 2.25955e-006 -3.67304e-008
211
root  -9.07576 34.4765 -32.0962 -166.521 56.6426 -173.831
RightUpLeg  -24.4333 -9.40846 0.534839
RightLeg  7.43503 28.2573 1.79409
RightFoot  18.5505 -1.55829 9.88676
RightToes  -58.3812 -0.379328 -0.393832
Spine  -1.35438 -0.899703 -0.628166
Spine1  -2.5577 -1.47898 -0.567082
HEad  -77.0558 -25.4695 11.632
LeftShoulder1  -1.94126e-019 -3.10601e-018 -2.51263e-017
LeftArm  13.0056 -5.50241 -80.3721
LeftForeArm  33.8747 -66.7565 -23.4463
LeftHand  -0.638599 -1.38724 11.0965
RightShoulder  -4.96962e-017 0 -2.36833e-017
RightArm  -3.18588 -23.0329 77.7739
RightForeArm  58.1338 68.0362 21.5299
RightHand  -0.158162 -1.39001 -4.27145
LeftUpLeg  -12.6186 16.602 -2.40239
LeftLeg  22.5857 18.1264 6.07831
LeftFoot  -9.01617 -0.243013 -2.91991
LeftToes  1.02638 2.25955e-006 -3.67304e-008
212
root  -9.18451 34.5648 -32.0154 -165.727 57.4353 -173.237
RightUpLeg  -23.6573 -10.0973 0.538762
RightLeg  9.0046 20.4734 1.87477
RightFoot  15.3784 -0.723057 5.76927
RightToes  -53.0971 -0.330619 -0.376558
Spine  -1.32059 -0.938878 -0.63529
Spine1  -2.51367 -1.59117 -0.57616
HEad  -77.8993 -24.4821 12.4702
LeftShoulder1  -1.94126e-019 -3.10601e-018 -2.51263e-017
LeftArm  12.9054 -0.999035 -78.8327
LeftForeArm  34.5418 -67.2294 -24.0032
LeftHand  -0.553905 -1.65352 9.30392
RightShoulder  -4.96962e-017 0 -2.36833e-017
RightArm  -2.45498 -23.2205 78.3313
RightForeArm  58.2414 68.2987 21.86
RightHand  -0.161805 -1.3456 -4.07426
LeftUpLeg  -12.6188 15.9009 -2.38584
LeftLeg  21.7304 19.6483 6.24988
LeftFoot  -8.31653 -0.224767 -2.92925
LeftToes  1.12684 2.25955e-006 -3.67304e-008
213
root  -9.23688 34.644 -31.9701 -165.151 58.1739 -172.695
RightUpLeg  -22.4214 -10.3671 0.20728
RightLeg  11.444 11.3583 1.54057
RightFoot  12.6327 -0.241412 2.65179
RightToes  -44.2044 -0.25291 -0.337619
Spine  -1.32188 -0.981384 -0.558061
Spine1  -2.53572 -1.71235 -0.408194
HEad  -78.3033 -23.8197 12.9928
LeftShoulder1  -1.94126e-019 -3.10601e-018 -2.51263e-017
LeftArm  11.9437 3.77317 -78.1649
LeftForeArm  34.0121 -67.6335 -24.6709
LeftHand  -0.373984 -1.66855 6.32424
RightShoulder  -4.96962e-017 0 -2.36833e-017
RightArm  -0.908945 -23.7103 78.1305
RightForeArm  59.4699 69.1777 22.9286
RightHand  -0.161629 -1.12739 -4.03441
LeftUpLeg  -12.2766 15.7001 -2.29936
LeftLeg  20.7013 20.6895 6.16957
LeftFoot  -7.6958 -0.202694 -2.85134
LeftToes  1.21735 2.25955e-006 -3.67304e-008
214
root  -9.23648 34.6964 -31.9524 -165.041 59.076 -172.498
RightUpLeg  -20.8625 -10.6429 -0.440608
RightLeg  14.2725 3.14961 0.588808
RightFoot  9.3754 -0.0129844 0.673866
RightToes  -35.7895 -0.185751 -0.290123
Spine  -1.35131 -0.946641 -0.520829
Spine1  -2.62079 -1.69119 -0.313478
HEad  -77.9366 -23.5534 12.9171
LeftShoulder1  -1.94126e-019 -3.10601e-018 -2.51263e-017
LeftArm  11.6146 8.68742 -77.3336
LeftForeArm  33.2987 -68.8091 -26.6704
LeftHand  -0.241391 -1.45428 4.2486
RightShoulder  -4.96962e-017 0 -2.36833e-017
RightArm  1.27701 -24.4672 77.3937
RightForeArm  60.7811 70.5204 24.8772
RightHand  -0.158685 -0.978475 -4.07766
LeftUpLeg  -11.6568 15.8714 -2.33009
LeftLeg  19.6909 21.4898 5.99758
LeftFoot  -7.15568 -0.181995 -2.74848
LeftToes  1.1064 2.25955e-006 -3.67304e-008
